<svg width="24" height="24" viewBox="0 0 24 24" fill="none" xmlns="http://www.w3.org/2000/svg">
<path d="M12.2001 0C11.3704 0 10.7001 0.670312 10.7001 1.5V2.4C7.27822 3.09375 4.70009 6.12187 4.70009 9.75V10.6313C4.70009 12.8344 3.88915 14.9625 2.42665 16.6125L2.07978 17.0016C1.68603 17.4422 1.59228 18.075 1.83134 18.6141C2.0704 19.1531 2.60947 19.5 3.20009 19.5H21.2001C21.7907 19.5 22.3251 19.1531 22.5688 18.6141C22.8126 18.075 22.7142 17.4422 22.3204 17.0016L21.9735 16.6125C20.511 14.9625 19.7001 12.8391 19.7001 10.6313V9.75C19.7001 6.12187 17.122 3.09375 13.7001 2.4V1.5C13.7001 0.670312 13.0298 0 12.2001 0ZM14.3235 23.1234C14.886 22.5609 15.2001 21.7969 15.2001 21H12.2001H9.20009C9.20009 21.7969 9.51415 22.5609 10.0767 23.1234C10.6392 23.6859 11.4032 24 12.2001 24C12.997 24 13.761 23.6859 14.3235 23.1234Z" fill="white"/>
</svg>
