<svg width="24" height="24" viewBox="0 0 24 24" fill="none" xmlns="http://www.w3.org/2000/svg">
<g clip-path="url(#clip0_6_837)">
<path d="M7.775 0C8.59086 0 9.25 0.659141 9.25 1.475V2.95H15.15V1.475C15.15 0.659141 15.8091 0 16.625 0C17.4409 0 18.1 0.659141 18.1 1.475V2.95H20.3125C21.534 2.95 22.525 3.94102 22.525 5.1625V7.375H1.875V5.1625C1.875 3.94102 2.86602 2.95 4.0875 2.95H6.3V1.475C6.3 0.659141 6.95914 0 7.775 0ZM1.875 8.85H22.525V21.3875C22.525 22.609 21.534 23.6 20.3125 23.6H4.0875C2.86602 23.6 1.875 22.609 1.875 21.3875V8.85ZM4.825 12.5375V14.0125C4.825 14.4181 5.15687 14.75 5.5625 14.75H7.0375C7.44312 14.75 7.775 14.4181 7.775 14.0125V12.5375C7.775 12.1319 7.44312 11.8 7.0375 11.8H5.5625C5.15687 11.8 4.825 12.1319 4.825 12.5375ZM10.725 12.5375V14.0125C10.725 14.4181 11.0569 14.75 11.4625 14.75H12.9375C13.3431 14.75 13.675 14.4181 13.675 14.0125V12.5375C13.675 12.1319 13.3431 11.8 12.9375 11.8H11.4625C11.0569 11.8 10.725 12.1319 10.725 12.5375ZM17.3625 11.8C16.9569 11.8 16.625 12.1319 16.625 12.5375V14.0125C16.625 14.4181 16.9569 14.75 17.3625 14.75H18.8375C19.2431 14.75 19.575 14.4181 19.575 14.0125V12.5375C19.575 12.1319 19.2431 11.8 18.8375 11.8H17.3625ZM4.825 18.4375V19.9125C4.825 20.3181 5.15687 20.65 5.5625 20.65H7.0375C7.44312 20.65 7.775 20.3181 7.775 19.9125V18.4375C7.775 18.0319 7.44312 17.7 7.0375 17.7H5.5625C5.15687 17.7 4.825 18.0319 4.825 18.4375ZM11.4625 17.7C11.0569 17.7 10.725 18.0319 10.725 18.4375V19.9125C10.725 20.3181 11.0569 20.65 11.4625 20.65H12.9375C13.3431 20.65 13.675 20.3181 13.675 19.9125V18.4375C13.675 18.0319 13.3431 17.7 12.9375 17.7H11.4625ZM16.625 18.4375V19.9125C16.625 20.3181 16.9569 20.65 17.3625 20.65H18.8375C19.2431 20.65 19.575 20.3181 19.575 19.9125V18.4375C19.575 18.0319 19.2431 17.7 18.8375 17.7H17.3625C16.9569 17.7 16.625 18.0319 16.625 18.4375Z" fill="white"/>
</g>
<defs>
<clipPath id="clip0_6_837">
<rect width="24" height="24" fill="white"/>
</clipPath>
</defs>
</svg>
