<svg width="24" height="24" viewBox="0 0 24 24" fill="none" xmlns="http://www.w3.org/2000/svg">
<g clip-path="url(#clip0_6_838)">
<path d="M6.98907 2.83752L6.50157 4.30002H3C1.34531 4.30002 0 5.64534 0 7.30002V19.3C0 20.9547 1.34531 22.3 3 22.3H21C22.6547 22.3 24 20.9547 24 19.3V7.30002C24 5.64534 22.6547 4.30002 21 4.30002H17.4985L17.011 2.83752C16.7063 1.91877 15.8485 1.30002 14.8781 1.30002H9.12188C8.15157 1.30002 7.29376 1.91877 6.98907 2.83752ZM12 8.80003C13.1935 8.80003 14.3381 9.27413 15.182 10.118C16.0259 10.962 16.5 12.1066 16.5 13.3C16.5 14.4935 16.0259 15.6381 15.182 16.482C14.3381 17.3259 13.1935 17.8 12 17.8C10.8065 17.8 9.66194 17.3259 8.81803 16.482C7.97411 15.6381 7.50001 14.4935 7.50001 13.3C7.50001 12.1066 7.97411 10.962 8.81803 10.118C9.66194 9.27413 10.8065 8.80003 12 8.80003Z" fill="white"/>
</g>
<defs>
<clipPath id="clip0_6_838">
<rect width="24" height="24" fill="white"/>
</clipPath>
</defs>
</svg>
