<svg width="24" height="24" viewBox="0 0 24 24" fill="none" xmlns="http://www.w3.org/2000/svg">
<g clip-path="url(#clip0_6_843)">
<path d="M12 24C15.1826 24 18.2348 22.7357 20.4853 20.4853C22.7357 18.2348 24 15.1826 24 12C24 8.8174 22.7357 5.76516 20.4853 3.51472C18.2348 1.26428 15.1826 0 12 0C8.8174 0 5.76516 1.26428 3.51472 3.51472C1.26428 5.76516 0 8.8174 0 12C0 15.1826 1.26428 18.2348 3.51472 20.4853C5.76516 22.7357 8.8174 24 12 24ZM6.33281 10.1906L11.3531 5.50781C11.5312 5.34375 11.7609 5.25 12 5.25C12.2391 5.25 12.4734 5.34375 12.6469 5.50781L17.6672 10.1906C17.8781 10.3875 18 10.6641 18 10.9547C18 11.5312 17.5312 12 16.9547 12H14.25V16.5C14.25 17.3297 13.5797 18 12.75 18H11.25C10.4203 18 9.75 17.3297 9.75 16.5V12H7.04531C6.46875 12 6 11.5312 6 10.9547C6 10.6641 6.12188 10.3875 6.33281 10.1906Z" fill="white"/>
</g>
<defs>
<clipPath id="clip0_6_843">
<rect width="24" height="24" fill="white"/>
</clipPath>
</defs>
</svg>
