<svg width="25" height="25" viewBox="0 0 25 25" fill="none" xmlns="http://www.w3.org/2000/svg">
<g clip-path="url(#clip0_24_630)">
<path d="M12.6 24.8C15.7826 24.8 18.8348 23.5357 21.0853 21.2853C23.3357 19.0348 24.6 15.9826 24.6 12.8C24.6 9.61739 23.3357 6.56514 21.0853 4.31471C18.8348 2.06427 15.7826 0.799988 12.6 0.799988C9.41738 0.799988 6.36513 2.06427 4.11469 4.31471C1.86426 6.56514 0.599976 9.61739 0.599976 12.8C0.599976 15.9826 1.86426 19.0348 4.11469 21.2853C6.36513 23.5357 9.41738 24.8 12.6 24.8ZM17.8969 10.5969L11.8969 16.5969C11.4562 17.0375 10.7437 17.0375 10.3078 16.5969L7.30779 13.5969C6.86716 13.1562 6.86716 12.4437 7.30779 12.0078C7.74841 11.5719 8.46091 11.5672 8.89685 12.0078L11.1 14.2109L16.3031 9.00311C16.7437 8.56249 17.4562 8.56249 17.8922 9.00311C18.3281 9.44374 18.3328 10.1562 17.8922 10.5922L17.8969 10.5969Z" fill="white"/>
</g>
<defs>
<clipPath id="clip0_24_630">
<rect width="24" height="24" fill="white" transform="translate(0.599976 0.799988)"/>
</clipPath>
</defs>
</svg>
