<svg width="25" height="25" viewBox="0 0 25 25" fill="none" xmlns="http://www.w3.org/2000/svg">
<g clip-path="url(#clip0_63_1202)">
<path d="M12.6 0.799988C15.7826 0.799988 18.8348 2.06427 21.0853 4.31471C23.3357 6.56514 24.6 9.61739 24.6 12.8C24.6 15.9826 23.3357 19.0348 21.0853 21.2853C18.8348 23.5357 15.7826 24.8 12.6 24.8C9.41738 24.8 6.36513 23.5357 4.11469 21.2853C1.86426 19.0348 0.599976 15.9826 0.599976 12.8C0.599976 9.61739 1.86426 6.56514 4.11469 4.31471C6.36513 2.06427 9.41738 0.799988 12.6 0.799988ZM11.475 6.42499V12.8C11.475 13.175 11.6625 13.5266 11.9765 13.7375L16.4765 16.7375C16.9922 17.0844 17.6906 16.9437 18.0375 16.4234C18.3843 15.9031 18.2437 15.2094 17.7234 14.8625L13.725 12.2V6.42499C13.725 5.80155 13.2234 5.29999 12.6 5.29999C11.9765 5.29999 11.475 5.80155 11.475 6.42499Z" fill="white"/>
</g>
<defs>
<clipPath id="clip0_63_1202">
<rect width="24" height="24" fill="white" transform="translate(0.599976 0.799988)"/>
</clipPath>
</defs>
</svg>
