<svg width="26" height="26" viewBox="0 0 26 26" fill="none" xmlns="http://www.w3.org/2000/svg">
<g clip-path="url(#clip0_6_835)">
<path d="M25.6 12C25.6 17.745 19.87 22.4 12.8 22.4C10.945 22.4 9.18502 22.08 7.59502 21.505C7.00002 21.94 6.03002 22.535 4.88002 23.035C3.68002 23.555 2.23502 24 0.800018 24C0.475018 24 0.185018 23.805 0.0600179 23.505C-0.0649821 23.205 0.0050179 22.865 0.230018 22.635L0.245018 22.62C0.260018 22.605 0.280018 22.585 0.310018 22.55C0.365018 22.49 0.450018 22.395 0.555018 22.265C0.760018 22.015 1.03502 21.645 1.31502 21.185C1.81502 20.355 2.29002 19.265 2.38502 18.04C0.885018 16.34 1.79112e-05 14.255 1.79112e-05 12C1.79112e-05 6.25501 5.73002 1.60001 12.8 1.60001C19.87 1.60001 25.6 6.25501 25.6 12Z" fill="white"/>
</g>
<defs>
<clipPath id="clip0_6_835">
<rect width="25.6" height="25.6" fill="white"/>
</clipPath>
</defs>
</svg>
