<svg width="24" height="24" viewBox="0 0 24 24" fill="none" xmlns="http://www.w3.org/2000/svg">
<g clip-path="url(#clip0_6_845)">
<path d="M12 24C15.1826 24 18.2348 22.7357 20.4853 20.4853C22.7357 18.2348 24 15.1826 24 12C24 8.8174 22.7357 5.76516 20.4853 3.51472C18.2348 1.26428 15.1826 0 12 0C8.8174 0 5.76516 1.26428 3.51472 3.51472C1.26428 5.76516 0 8.8174 0 12C0 15.1826 1.26428 18.2348 3.51472 20.4853C5.76516 22.7357 8.8174 24 12 24ZM14.3766 15.2391L7.6125 17.8406C6.70312 18.1922 5.80781 17.2969 6.15937 16.3875L8.76094 9.62344C8.91562 9.225 9.225 8.91562 9.62344 8.76094L16.3875 6.15937C17.2969 5.80781 18.1922 6.70312 17.8406 7.6125L15.2391 14.3766C15.0891 14.775 14.775 15.0844 14.3766 15.2391ZM13.5 12C13.5 11.6022 13.342 11.2206 13.0607 10.9393C12.7794 10.658 12.3978 10.5 12 10.5C11.6022 10.5 11.2206 10.658 10.9393 10.9393C10.658 11.2206 10.5 11.6022 10.5 12C10.5 12.3978 10.658 12.7794 10.9393 13.0607C11.2206 13.342 11.6022 13.5 12 13.5C12.3978 13.5 12.7794 13.342 13.0607 13.0607C13.342 12.7794 13.5 12.3978 13.5 12Z" fill="white"/>
</g>
<defs>
<clipPath id="clip0_6_845">
<rect width="24" height="24" fill="white"/>
</clipPath>
</defs>
</svg>
