<svg width="25" height="25" viewBox="0 0 25 25" fill="none" xmlns="http://www.w3.org/2000/svg">
<g clip-path="url(#clip0_63_1193)">
<path d="M13.475 6.81871C13.95 6.53025 14.2666 6.00689 14.2666 5.41761C14.2666 4.50689 13.5208 3.76926 12.6 3.76926C11.6791 3.76926 10.9333 4.50689 10.9333 5.41761C10.9333 6.01101 11.25 6.53025 11.725 6.81871L9.33748 11.5412C8.95831 12.2912 7.97498 12.5055 7.31248 11.9822L3.59998 9.04398C3.80831 8.76788 3.93331 8.42585 3.93331 8.05497C3.93331 7.14426 3.18748 6.40662 2.26664 6.40662C1.34581 6.40662 0.599976 7.14426 0.599976 8.05497C0.599976 8.96569 1.34581 9.70332 2.26664 9.70332C2.27498 9.70332 2.28748 9.70332 2.29581 9.70332L4.19998 20.0632C4.42914 21.316 5.53331 22.2308 6.82498 22.2308H18.375C19.6625 22.2308 20.7666 21.3201 21 20.0632L22.9041 9.70332C22.9125 9.70332 22.925 9.70332 22.9333 9.70332C23.8541 9.70332 24.6 8.96569 24.6 8.05497C24.6 7.14426 23.8541 6.40662 22.9333 6.40662C22.0125 6.40662 21.2666 7.14426 21.2666 8.05497C21.2666 8.42585 21.3916 8.76788 21.6 9.04398L17.8875 11.9822C17.225 12.5055 16.2416 12.2912 15.8625 11.5412L13.475 6.81871Z" fill="white"/>
</g>
<defs>
<clipPath id="clip0_63_1193">
<rect width="24" height="24" fill="white" transform="translate(0.599976 0.799988)"/>
</clipPath>
</defs>
</svg>
