<svg width="24" height="24" viewBox="0 0 24 24" fill="none" xmlns="http://www.w3.org/2000/svg">
<g clip-path="url(#clip0_6_846)">
<path d="M8.96719 0.253119C9.33281 -0.0890688 9.9 -0.0843813 10.2656 0.257806C11.5594 1.47187 12.7734 2.77968 13.9078 4.19531C14.4234 3.52031 15.0094 2.78437 15.6422 2.18437C16.0125 1.83749 16.5844 1.83749 16.9547 2.18906C18.5766 3.73593 19.95 5.77968 20.9156 7.72031C21.8672 9.63281 22.5 11.5875 22.5 12.9656C22.5 18.9469 17.8219 24 12 24C6.1125 24 1.5 18.9422 1.5 12.9609C1.5 11.1609 2.33438 8.96249 3.62813 6.78749C4.93594 4.57968 6.78281 2.27812 8.96719 0.253119ZM12.0797 19.5C13.2656 19.5 14.3156 19.1719 15.3047 18.5156C17.2781 17.1375 17.8078 14.3812 16.6219 12.2156C16.4109 11.7937 15.8719 11.7656 15.5672 12.1219L14.3859 13.4953C14.0766 13.8516 13.5188 13.8422 13.2281 13.4719C12.4547 12.4875 11.0719 10.7297 10.2844 9.73124C9.98906 9.35624 9.42656 9.35156 9.12656 9.72656C7.54219 11.7187 6.74531 12.975 6.74531 14.3859C6.75 17.5969 9.12187 19.5 12.0797 19.5Z" fill="white"/>
</g>
<defs>
<clipPath id="clip0_6_846">
<rect width="24" height="24" fill="white"/>
</clipPath>
</defs>
</svg>
