<svg width="25" height="25" viewBox="0 0 25 25" fill="none" xmlns="http://www.w3.org/2000/svg">
<g clip-path="url(#clip0_237_2809)">
<path d="M13.7109 24.2C16.1156 21.1906 21.6 13.8969 21.6 9.79999C21.6 4.83124 17.5687 0.799988 12.6 0.799988C7.63123 0.799988 3.59998 4.83124 3.59998 9.79999C3.59998 13.8969 9.08435 21.1906 11.489 24.2C12.0656 24.9172 13.1344 24.9172 13.7109 24.2ZM12.6 6.79999C13.3956 6.79999 14.1587 7.11606 14.7213 7.67867C15.2839 8.24128 15.6 9.00434 15.6 9.79999C15.6 10.5956 15.2839 11.3587 14.7213 11.9213C14.1587 12.4839 13.3956 12.8 12.6 12.8C11.8043 12.8 11.0413 12.4839 10.4787 11.9213C9.91605 11.3587 9.59998 10.5956 9.59998 9.79999C9.59998 9.00434 9.91605 8.24128 10.4787 7.67867C11.0413 7.11606 11.8043 6.79999 12.6 6.79999Z" fill="white"/>
</g>
<defs>
<clipPath id="clip0_237_2809">
<rect width="24" height="24" fill="white" transform="translate(0.599976 0.799988)"/>
</clipPath>
</defs>
</svg>
