<svg width="25" height="25" viewBox="0 0 25 25" fill="none" xmlns="http://www.w3.org/2000/svg">
<path d="M21.0558 21.2558C23.3063 19.0054 24.5705 15.9531 24.5705 12.7705C24.5705 9.58794 23.3063 6.53569 21.0558 4.28526C18.8054 2.03482 15.7531 0.770537 12.5705 0.770538C9.38794 0.770538 6.33569 2.03482 4.08526 4.28526C1.83482 6.53569 0.570538 9.58794 0.570538 12.7705C0.570538 15.9531 1.83482 19.0054 4.08526 21.2558C6.33569 23.5063 9.38794 24.7705 12.5705 24.7705C15.7531 24.7705 18.8054 23.5063 21.0558 21.2558ZM7.20095 12.7705C7.20095 12.1474 7.70476 11.6436 8.32458 11.6469C13.715 11.6469 12.0942 11.6469 16.8032 11.6469C17.4264 11.6469 17.9302 12.1507 17.9269 12.7705C17.9236 13.3904 17.4231 13.8975 16.8032 13.8942C13 13.8942 12.4082 13.8942 8.32458 13.8942C7.70144 13.8942 7.19763 13.3904 7.20095 12.7705Z" fill="white"/>
</svg>
