<svg width="25" height="25" viewBox="0 0 25 25" fill="none" xmlns="http://www.w3.org/2000/svg">
<g clip-path="url(#clip0_6_834)">
<path d="M17.6015 1.70468L15.3328 3.97343L21.4265 10.0672L23.6953 7.79843C24.8671 6.62656 24.8671 4.72812 23.6953 3.55624L21.8484 1.70468C20.6765 0.532806 18.7781 0.532806 17.6062 1.70468H17.6015ZM14.2734 5.03281L3.34683 15.9641C2.85933 16.4516 2.50308 17.0562 2.30621 17.7172L0.646831 23.3562C0.529643 23.7547 0.637456 24.1812 0.928081 24.4719C1.21871 24.7625 1.64527 24.8703 2.03902 24.7578L7.67808 23.0984C8.33902 22.9016 8.94371 22.5453 9.43121 22.0578L20.3671 11.1266L14.2734 5.03281Z" fill="white"/>
</g>
<defs>
<clipPath id="clip0_6_834">
<rect width="24" height="24" fill="white" transform="translate(0.599976 0.799988)"/>
</clipPath>
</defs>
</svg>
