<svg width="24" height="24" viewBox="0 0 24 24" fill="none" xmlns="http://www.w3.org/2000/svg">
<g clip-path="url(#clip0_6_850)">
<path d="M7.72969 1.15305C7.36875 0.281178 6.41719 -0.182885 5.50781 0.0655528L1.38281 1.19055C0.567188 1.41555 0 2.15618 0 2.99993C0 14.5968 9.40313 23.9999 21 23.9999C21.8438 23.9999 22.5844 23.4327 22.8094 22.6171L23.9344 18.4921C24.1828 17.5827 23.7188 16.6312 22.8469 16.2702L18.3469 14.3952C17.5828 14.0765 16.6969 14.2968 16.1766 14.939L14.2828 17.2499C10.9828 15.689 8.31094 13.0171 6.75 9.71712L9.06094 7.82805C9.70312 7.30305 9.92344 6.4218 9.60469 5.65774L7.72969 1.15774V1.15305Z" fill="white"/>
</g>
<defs>
<clipPath id="clip0_6_850">
<rect width="24" height="24" fill="white"/>
</clipPath>
</defs>
</svg>
