<svg width="25" height="25" viewBox="0 0 25 25" fill="none" xmlns="http://www.w3.org/2000/svg">
<path d="M21.0558 21.2558C23.3063 19.0054 24.5705 15.9531 24.5705 12.7705C24.5705 9.58794 23.3063 6.53569 21.0558 4.28526C18.8054 2.03482 15.7531 0.770537 12.5705 0.770538C9.38794 0.770538 6.33569 2.03482 4.08526 4.28526C1.83482 6.53569 0.570538 9.58794 0.570538 12.7705C0.570538 15.9531 1.83482 19.0054 4.08526 21.2558C6.33569 23.5063 9.38794 24.7705 12.5705 24.7705C15.7531 24.7705 18.8054 23.5063 21.0558 21.2558ZM7.20095 12.7705C7.20095 12.1474 7.70476 11.6436 8.32458 11.6469H11.4403V8.53121C11.4403 7.90807 11.9441 7.40426 12.5639 7.40758C13.1837 7.41089 13.6909 7.91139 13.6875 8.53121V11.6469H16.8032C17.4264 11.6469 17.9302 12.1507 17.9269 12.7705C17.9236 13.3904 17.4231 13.8975 16.8032 13.8942H13.6875V17.0099C13.6875 17.633 13.1837 18.1368 12.5639 18.1335C11.9441 18.1302 11.437 17.6297 11.4403 17.0099V13.8942H8.32458C7.70144 13.8942 7.19763 13.3904 7.20095 12.7705Z" fill="white"/>
</svg>
