<svg width="25" height="25" viewBox="0 0 25 25" fill="none" xmlns="http://www.w3.org/2000/svg">
<g clip-path="url(#clip0_264_2936)">
<path d="M24.6 5.29999C24.6 7.65311 21.8297 11.1641 20.6343 12.5656C20.4562 12.7719 20.1937 12.8516 19.9547 12.8H15.6C14.7703 12.8 14.1 13.4703 14.1 14.3C14.1 15.1297 14.7703 15.8 15.6 15.8H20.1C22.5844 15.8 24.6 17.8156 24.6 20.3C24.6 22.7844 22.5844 24.8 20.1 24.8H7.14373C7.55154 24.3359 8.04841 23.7406 8.54998 23.075C8.84529 22.6812 9.14998 22.25 9.4406 21.8H20.1C20.9297 21.8 21.6 21.1297 21.6 20.3C21.6 19.4703 20.9297 18.8 20.1 18.8H15.6C13.1156 18.8 11.1 16.7844 11.1 14.3C11.1 11.8156 13.1156 9.79999 15.6 9.79999H17.4656C16.4812 8.32343 15.6 6.62655 15.6 5.29999C15.6 2.81561 17.6156 0.799988 20.1 0.799988C22.5844 0.799988 24.6 2.81561 24.6 5.29999ZM6.08904 23.7266C5.91091 23.9281 5.75154 24.1062 5.6156 24.2562L5.53123 24.35L5.52185 24.3406C5.2406 24.5562 4.83748 24.5281 4.58435 24.2562C3.4031 22.9719 0.599976 19.6672 0.599976 17.3C0.599976 14.8156 2.6156 12.8 5.09998 12.8C7.58435 12.8 9.59998 14.8156 9.59998 17.3C9.59998 18.7062 8.61091 20.4406 7.56091 21.889C7.05935 22.5781 6.54373 23.2015 6.11716 23.6937L6.08904 23.7266ZM6.59998 17.3C6.59998 16.9022 6.44194 16.5206 6.16064 16.2393C5.87933 15.958 5.4978 15.8 5.09998 15.8C4.70215 15.8 4.32062 15.958 4.03932 16.2393C3.75801 16.5206 3.59998 16.9022 3.59998 17.3C3.59998 17.6978 3.75801 18.0793 4.03932 18.3606C4.32062 18.642 4.70215 18.8 5.09998 18.8C5.4978 18.8 5.87933 18.642 6.16064 18.3606C6.44194 18.0793 6.59998 17.6978 6.59998 17.3ZM20.1 6.79999C20.4978 6.79999 20.8793 6.64195 21.1606 6.36065C21.4419 6.07934 21.6 5.69781 21.6 5.29999C21.6 4.90216 21.4419 4.52063 21.1606 4.23933C20.8793 3.95802 20.4978 3.79999 20.1 3.79999C19.7022 3.79999 19.3206 3.95802 19.0393 4.23933C18.758 4.52063 18.6 4.90216 18.6 5.29999C18.6 5.69781 18.758 6.07934 19.0393 6.36065C19.3206 6.64195 19.7022 6.79999 20.1 6.79999Z" fill="white"/>
</g>
<defs>
<clipPath id="clip0_264_2936">
<rect width="24" height="24" fill="white" transform="translate(0.599976 0.799988)"/>
</clipPath>
</defs>
</svg>
