<svg width="24" height="24" viewBox="0 0 24 24" fill="none" xmlns="http://www.w3.org/2000/svg">
<g clip-path="url(#clip0_6_851)">
<path d="M14.3906 1.63125C13.8516 1.87031 13.5 2.40937 13.5 3V6H8.25C3.69375 6 0 9.69375 0 14.25C0 19.5609 3.82031 21.9328 4.69687 22.4109C4.81406 22.4766 4.94531 22.5 5.07656 22.5C5.5875 22.5 6 22.0828 6 21.5766C6 21.225 5.79844 20.9016 5.54062 20.6625C5.1 20.2453 4.5 19.425 4.5 18C4.5 15.5156 6.51562 13.5 9 13.5H13.5V16.5C13.5 17.0906 13.8469 17.6297 14.3906 17.8687C14.9344 18.1078 15.5625 18.0094 16.0031 17.6156L23.5031 10.8656C23.8172 10.5797 24 10.1766 24 9.75C24 9.32344 23.8219 8.92031 23.5031 8.63437L16.0031 1.88437C15.5625 1.48594 14.9297 1.3875 14.3906 1.63125Z" fill="white"/>
</g>
<defs>
<clipPath id="clip0_6_851">
<rect width="24" height="24" fill="white"/>
</clipPath>
</defs>
</svg>
