<svg width="25" height="25" viewBox="0 0 25 25" fill="none" xmlns="http://www.w3.org/2000/svg">
<g clip-path="url(#clip0_334_5759)">
<path d="M11.5922 1.06717C12.2437 0.832794 12.9562 0.832794 13.6125 1.06717L22.6125 4.28279C23.8031 4.70936 24.6 5.83904 24.6 7.10936V18.4906C24.6 19.7562 23.8031 20.8906 22.6078 21.3172L13.6078 24.5328C12.9562 24.7672 12.2437 24.7672 11.5875 24.5328L2.58748 21.3172C1.39685 20.8906 0.599976 19.7609 0.599976 18.4906V7.10936C0.599976 5.84373 1.39685 4.70936 2.59216 4.28279L11.5922 1.06717ZM12.6 3.89373L4.45779 6.79998L12.6 9.70623L20.7422 6.79998L12.6 3.89373ZM14.1 21.1719L21.6 18.4953V9.68279L14.1 12.3594V21.1719Z" fill="white"/>
</g>
<defs>
<clipPath id="clip0_334_5759">
<rect width="24" height="24" fill="white" transform="translate(0.599976 0.799988)"/>
</clipPath>
</defs>
</svg>
