<svg width="24" height="24" viewBox="0 0 24 24" fill="none" xmlns="http://www.w3.org/2000/svg">
<g clip-path="url(#clip0_6_852)">
<path d="M13.3057 1.18299C13.0648 0.683046 12.5558 0.364899 11.9967 0.364899C11.4377 0.364899 10.9332 0.683046 10.6878 1.18299L7.76537 7.19599L1.2388 8.15952C0.693401 8.24133 0.238904 8.62311 0.0707399 9.14578C-0.0974239 9.66845 0.038925 10.2457 0.429792 10.632L5.16565 15.3178L4.04759 21.9399C3.95669 22.4853 4.18394 23.0397 4.63389 23.3624C5.08384 23.6851 5.67923 23.726 6.17009 23.467L12.0013 20.3537L17.8325 23.467C18.3233 23.726 18.9187 23.6897 19.3687 23.3624C19.8186 23.0352 20.0459 22.4853 19.955 21.9399L18.8324 15.3178L23.5682 10.632C23.9591 10.2457 24.1 9.66845 23.9273 9.14578C23.7546 8.62311 23.3046 8.24133 22.7592 8.15952L16.2281 7.19599L13.3057 1.18299Z" fill="white"/>
</g>
<defs>
<clipPath id="clip0_6_852">
<rect width="24" height="24" fill="white"/>
</clipPath>
</defs>
</svg>
