<svg width="41" height="17" viewBox="0 0 41 17" fill="none" xmlns="http://www.w3.org/2000/svg">
<path fill-rule="evenodd" clip-rule="evenodd" d="M0.599976 3.79999C0.599976 2.14313 1.94312 0.799988 3.59998 0.799988H5.59998C7.25683 0.799988 8.59998 2.14313 8.59998 3.79999V6.86879C8.59998 7.38097 8.80344 7.87218 9.16561 8.23435C9.52778 8.59652 10.019 8.79999 10.5312 8.79999H14.8343C15.3026 8.79999 15.7517 8.61396 16.0828 8.28282C16.4139 7.95168 16.6 7.50256 16.6 7.03426V3.79999C16.6 2.14313 17.9431 0.799988 19.6 0.799988H21.6C23.2568 0.799988 24.6 2.14313 24.6 3.79999V6.70307C24.6 7.25921 24.8209 7.79257 25.2141 8.18581C25.6074 8.57906 26.1408 8.79999 26.6969 8.79999H30.8342C31.3025 8.79999 31.7517 8.61396 32.0828 8.28282C32.4139 7.95168 32.6 7.50255 32.6 7.03425V3.79999C32.6 2.14313 33.9431 0.799988 35.6 0.799988H37.6C39.2568 0.799988 40.6 2.14313 40.6 3.79999V5.79999C40.6 7.45684 39.2568 8.79999 37.6 8.79999H34.697C34.1408 8.79999 33.6074 9.02092 33.2142 9.41419C32.8209 9.80745 32.6 10.3408 32.6 10.897V13.8C32.6 15.4568 31.2568 16.8 29.6 16.8H27.6C25.9431 16.8 24.6 15.4568 24.6 13.8V10.5658C24.6 10.0975 24.4139 9.64834 24.0828 9.31719C23.7516 8.98603 23.3025 8.79999 22.8342 8.79999H18.697C18.1408 8.79999 17.6074 9.02092 17.2142 9.41419C16.8209 9.80746 16.6 10.3408 16.6 10.897V13.8C16.6 15.4568 15.2568 16.8 13.6 16.8H11.6C9.94312 16.8 8.59998 15.4568 8.59998 13.8V10.7315C8.59998 10.2193 8.39647 9.72796 8.03424 9.36572C7.67201 9.00349 7.18071 8.79999 6.66844 8.79999H3.59998C1.94312 8.79999 0.599976 7.45684 0.599976 5.79999V3.79999Z" fill="white"/>
</svg>
