<svg width="25" height="25" viewBox="0 0 25 25" fill="none" xmlns="http://www.w3.org/2000/svg">
<g clip-path="url(#clip0_289_3074)">
<path d="M9.59998 0.799988C8.77029 0.799988 8.09998 1.4703 8.09998 2.29999V3.79999C8.09998 3.80468 8.09998 3.80468 8.09998 3.80936C6.2906 3.91249 4.71091 5.08905 4.10623 6.81405L2.45623 11.525C1.36873 11.975 0.599976 13.0484 0.599976 14.3V21.05V23.3C0.599976 24.1297 1.27029 24.8 2.09998 24.8H3.59998C4.42966 24.8 5.09998 24.1297 5.09998 23.3V21.05H20.1V23.3C20.1 24.1297 20.7703 24.8 21.6 24.8H23.1C23.9297 24.8 24.6 24.1297 24.6 23.3V21.05V14.3C24.6 13.0484 23.8312 11.975 22.7437 11.525L21.0937 6.81405C20.489 5.08905 18.9094 3.9078 17.1 3.80936C17.1 3.80468 17.1 3.80468 17.1 3.79999V2.29999C17.1 1.4703 16.4297 0.799988 15.6 0.799988H9.59998ZM8.3531 6.79999H16.8469C17.4844 6.79999 18.0515 7.20311 18.2625 7.80311L19.4859 11.3H5.71404L6.93748 7.80311C7.14841 7.20311 7.7156 6.79999 8.3531 6.79999ZM5.09998 14.3C5.4978 14.3 5.87933 14.458 6.16064 14.7393C6.44194 15.0206 6.59998 15.4022 6.59998 15.8C6.59998 16.1978 6.44194 16.5793 6.16064 16.8606C5.87933 17.142 5.4978 17.3 5.09998 17.3C4.70215 17.3 4.32062 17.142 4.03932 16.8606C3.75801 16.5793 3.59998 16.1978 3.59998 15.8C3.59998 15.4022 3.75801 15.0206 4.03932 14.7393C4.32062 14.458 4.70215 14.3 5.09998 14.3ZM18.6 15.8C18.6 15.4022 18.758 15.0206 19.0393 14.7393C19.3206 14.458 19.7022 14.3 20.1 14.3C20.4978 14.3 20.8793 14.458 21.1606 14.7393C21.4419 15.0206 21.6 15.4022 21.6 15.8C21.6 16.1978 21.4419 16.5793 21.1606 16.8606C20.8793 17.142 20.4978 17.3 20.1 17.3C19.7022 17.3 19.3206 17.142 19.0393 16.8606C18.758 16.5793 18.6 16.1978 18.6 15.8Z" fill="white"/>
</g>
<defs>
<clipPath id="clip0_289_3074">
<rect width="24" height="24" fill="white" transform="translate(0.599976 0.799988)"/>
</clipPath>
</defs>
</svg>
