<svg width="24" height="25" viewBox="0 0 24 25" fill="none" xmlns="http://www.w3.org/2000/svg">
<g clip-path="url(#clip0_6_853)">
<path d="M12 12.8C13.5913 12.8 15.1174 12.1678 16.2426 11.0426C17.3679 9.91741 18 8.39129 18 6.79999C18 5.20869 17.3679 3.68257 16.2426 2.55735C15.1174 1.43213 13.5913 0.799988 12 0.799988C10.4087 0.799988 8.88258 1.43213 7.75736 2.55735C6.63214 3.68257 6 5.20869 6 6.79999C6 8.39129 6.63214 9.91741 7.75736 11.0426C8.88258 12.1678 10.4087 12.8 12 12.8ZM9.85781 15.05C5.24063 15.05 1.5 18.7906 1.5 23.4078C1.5 24.1765 2.12344 24.8 2.89219 24.8H21.1078C21.8766 24.8 22.5 24.1765 22.5 23.4078C22.5 18.7906 18.7594 15.05 14.1422 15.05H9.85781Z" fill="white"/>
</g>
<defs>
<clipPath id="clip0_6_853">
<rect width="24" height="24" fill="white" transform="translate(0 0.799988)"/>
</clipPath>
</defs>
</svg>
