<svg width="24" height="24" viewBox="0 0 24 24" fill="none" xmlns="http://www.w3.org/2000/svg">
<circle cx="12" cy="12" r="11.5" fill="#FF004D" stroke="#7B0025"/>
<path d="M8.41113 17V15.4551L12.0342 12.0918C12.3441 11.7956 12.6038 11.529 12.8135 11.292C13.0231 11.0505 13.1826 10.8158 13.292 10.5879C13.4014 10.3555 13.4561 10.1048 13.4561 9.83594C13.4561 9.53516 13.3877 9.27767 13.251 9.06348C13.1143 8.84928 12.9297 8.68294 12.6973 8.56445C12.4648 8.44596 12.1982 8.38672 11.8975 8.38672C11.5876 8.38672 11.3164 8.45052 11.084 8.57812C10.8516 8.70117 10.6715 8.88118 10.5439 9.11816C10.4209 9.35059 10.3594 9.63086 10.3594 9.95898H8.30859C8.30859 9.28906 8.45898 8.71029 8.75977 8.22266C9.0651 7.73047 9.48893 7.34993 10.0312 7.08105C10.5781 6.81217 11.207 6.67773 11.918 6.67773C12.6426 6.67773 13.276 6.80762 13.8184 7.06738C14.3607 7.32259 14.7822 7.67806 15.083 8.13379C15.3838 8.58496 15.5342 9.10677 15.5342 9.69922C15.5342 10.082 15.459 10.4603 15.3086 10.834C15.1582 11.2031 14.8916 11.6178 14.5088 12.0781C14.126 12.5339 13.5837 13.0785 12.8818 13.7119L11.3916 15.168V15.2432H15.6709V17H8.41113Z" fill="white"/>
</svg>
