<svg width="24" height="24" viewBox="0 0 24 24" fill="none" xmlns="http://www.w3.org/2000/svg">
<circle cx="12" cy="12" r="11.5" fill="#FF004D" stroke="#7B0025"/>
<path d="M11.9727 17.1367C11.2253 17.1367 10.5622 17.0091 9.9834 16.7539C9.40918 16.4987 8.95573 16.1455 8.62305 15.6943C8.29036 15.2386 8.11947 14.7145 8.11035 14.1221H10.2705C10.2842 14.3682 10.3662 14.5846 10.5166 14.7715C10.667 14.9583 10.8675 15.1042 11.1182 15.209C11.3734 15.3092 11.6582 15.3594 11.9727 15.3594C12.3008 15.3594 12.5902 15.3024 12.8408 15.1885C13.096 15.0745 13.2943 14.915 13.4355 14.71C13.5768 14.5049 13.6475 14.2679 13.6475 13.999C13.6475 13.721 13.5723 13.4795 13.4219 13.2744C13.2715 13.0648 13.0573 12.9007 12.7793 12.7822C12.5013 12.6637 12.1686 12.6045 11.7812 12.6045H10.8311V11.0186H11.7812C12.1094 11.0186 12.3965 10.9616 12.6426 10.8477C12.8887 10.7337 13.0824 10.5765 13.2236 10.376C13.3649 10.1755 13.4355 9.94303 13.4355 9.67871C13.4355 9.41895 13.374 9.19336 13.251 9.00195C13.1325 8.81055 12.9661 8.66016 12.752 8.55078C12.5378 8.44141 12.2848 8.38672 11.9932 8.38672C11.6969 8.38672 11.4281 8.43913 11.1865 8.54395C10.945 8.64876 10.7513 8.79688 10.6055 8.98828C10.4596 9.17513 10.3844 9.39844 10.3799 9.6582H8.30859C8.31771 9.07031 8.48405 8.55306 8.80762 8.10645C9.13118 7.65983 9.56868 7.3112 10.1201 7.06055C10.6761 6.80534 11.3027 6.67773 12 6.67773C12.7064 6.67773 13.3216 6.80534 13.8457 7.06055C14.3743 7.31576 14.7845 7.65983 15.0762 8.09277C15.3678 8.52572 15.5137 9.01107 15.5137 9.54883C15.5137 10.1185 15.3359 10.5947 14.9805 10.9775C14.625 11.3558 14.1624 11.5973 13.5928 11.7021V11.7773C14.3402 11.873 14.9076 12.1328 15.2949 12.5566C15.6868 12.9805 15.8828 13.5091 15.8828 14.1426C15.8828 14.7214 15.7142 15.2363 15.377 15.6875C15.0443 16.1387 14.584 16.4941 13.9961 16.7539C13.4082 17.0091 12.7337 17.1367 11.9727 17.1367Z" fill="white"/>
</svg>
