<svg width="32" height="24" viewBox="0 0 32 24" fill="none" xmlns="http://www.w3.org/2000/svg">
<path fill-rule="evenodd" clip-rule="evenodd" d="M20.0548 4.8C20.4756 4.8 20.8781 4.97157 21.1695 5.27509C21.4457 5.56284 21.6 5.94627 21.6 6.34516V8C21.6 8.88366 22.3163 9.6 23.2 9.6H24.8512C25.2401 9.6 25.6148 9.74631 25.9008 10.0099C26.219 10.3031 26.4 10.7161 26.4 11.1488V12.9975C26.4 13.3596 26.26 13.7076 26.0093 13.9688C25.7448 14.2443 25.3794 14.4 24.9975 14.4H23.2C22.3163 14.4 21.6 15.1163 21.6 16V17.7836C21.6 18.1492 21.4586 18.5007 21.2054 18.7645C20.9383 19.0427 20.5693 19.2 20.1836 19.2H18.4C17.5163 19.2 16.8 19.9163 16.8 20.8V22.4C16.8 23.2837 17.5163 24 18.4 24H20C20.8837 24 21.6 23.2837 21.6 22.4V20.623C21.6 20.2556 21.7421 19.9025 21.9965 19.6375C22.2648 19.358 22.6355 19.2 23.023 19.2H24.8C25.6837 19.2 26.4 18.4837 26.4 17.6V15.8369C26.4 15.4659 26.5434 15.1094 26.8003 14.8418C27.0713 14.5596 27.4456 14.4 27.8369 14.4H29.6C30.4837 14.4 31.2 13.6837 31.2 12.8V11.2C31.2 10.3163 30.4837 9.6 29.6 9.6H27.6967C27.3711 9.6 27.0574 9.47751 26.818 9.25686C26.5516 9.01136 26.4 8.6656 26.4 8.30333V6.4C26.4 5.51634 25.6837 4.8 24.8 4.8H22.8942C22.5418 4.8 22.2046 4.65629 21.9606 4.40208C21.7292 4.16106 21.6 3.8399 21.6 3.5058V1.6C21.6 0.716345 20.8837 0 20 0H18.4C17.5163 0 16.8 0.716344 16.8 1.6V3.2C16.8 4.08366 17.5163 4.8 18.4 4.8H20.0548ZM17.6 14.4C18.4837 14.4 19.2 13.6837 19.2 12.8V11.2C19.2 10.3163 18.4837 9.6 17.6 9.6H16C15.1163 9.6 14.4 10.3163 14.4 11.2V12.8C14.4 13.6837 15.1163 14.4 16 14.4H17.6ZM12 12.8C12 13.6837 11.2837 14.4 10.4 14.4H8.8C7.91634 14.4 7.2 13.6837 7.2 12.8V11.2C7.2 10.3163 7.91634 9.6 8.8 9.6H10.4C11.2837 9.6 12 10.3163 12 11.2V12.8ZM0 12.8C0 13.6837 0.716344 14.4 1.6 14.4H3.2C4.08366 14.4 4.8 13.6837 4.8 12.8V11.2C4.8 10.3163 4.08366 9.6 3.2 9.6H1.6C0.716344 9.6 0 10.3163 0 11.2V12.8Z" fill="#BCC1D0"/>
</svg>
