<svg width="24" height="24" viewBox="0 0 24 24" fill="none" xmlns="http://www.w3.org/2000/svg">
<path fill-rule="evenodd" clip-rule="evenodd" d="M5 3.2C5 4.08366 5.71634 4.8 6.6 4.8H8.25484C8.67558 4.8 9.07812 4.97157 9.3695 5.27509C9.64574 5.56284 9.8 5.94627 9.8 6.34516V8C9.8 8.88366 10.5163 9.6 11.4 9.6H13.0512C13.4401 9.6 13.8148 9.74631 14.1008 10.0099C14.419 10.3031 14.6 10.7161 14.6 11.1488V12.9975C14.6 13.3596 14.46 13.7076 14.2093 13.9688C13.9448 14.2443 13.5794 14.4 13.1975 14.4H11.4C10.5163 14.4 9.8 15.1163 9.8 16V17.7836C9.8 18.1492 9.65859 18.5007 9.40537 18.7645C9.13828 19.0427 8.76927 19.2 8.38359 19.2H6.6C5.71634 19.2 5 19.9163 5 20.8V22.4C5 23.2837 5.71634 24 6.6 24H8.2C9.08366 24 9.8 23.2837 9.8 22.4V20.623C9.8 20.2556 9.94206 19.9025 10.1965 19.6375C10.4648 19.358 10.8355 19.2 11.223 19.2H13C13.8837 19.2 14.6 18.4837 14.6 17.6V15.8369C14.6 15.4659 14.7434 15.1094 15.0003 14.8418C15.2713 14.5595 15.6456 14.4 16.0369 14.4H17.8C18.6837 14.4 19.4 13.6837 19.4 12.8V11.2C19.4 10.3163 18.6837 9.6 17.8 9.6H15.8967C15.5711 9.6 15.2574 9.47751 15.018 9.25686C14.7516 9.01136 14.6 8.6656 14.6 8.30333V6.4C14.6 5.51634 13.8837 4.8 13 4.8H11.0942C10.7418 4.8 10.4046 4.65629 10.1606 4.40208C9.9292 4.16106 9.8 3.8399 9.8 3.5058V1.6C9.8 0.716345 9.08366 0 8.2 0H6.6C5.71634 0 5 0.716344 5 1.6V3.2Z" fill="#BCC1D0"/>
</svg>
