<svg width="64" height="64" viewBox="0 0 64 64" fill="none" xmlns="http://www.w3.org/2000/svg">
<path fill-rule="evenodd" clip-rule="evenodd" d="M11.1111 0H18.2222H25.3333H32.4444H39.5556H46.6667H53.7778H58.5185C59.8276 0 60.8889 1.06125 60.8889 2.37037V4.74074C60.8889 6.04986 59.8276 7.11111 58.5185 7.11111H56.1481C54.839 7.11111 53.7778 8.17236 53.7778 9.48148V14.2222V18.963C53.7778 20.2721 52.7165 21.3333 51.4074 21.3333H48.2813C47.8758 21.3333 47.4852 21.4859 47.1871 21.7606C46.8554 22.0663 46.6667 22.4968 46.6667 22.9479V26.0741C46.6667 27.3832 45.6054 28.4444 44.2963 28.4444H41.6977C41.1598 28.4444 40.6416 28.6468 40.246 29.0113C39.8059 29.4169 39.5556 29.9881 39.5556 30.5866V33.6889C39.5556 34.2104 39.7737 34.7082 40.1572 35.0616C40.5019 35.3792 40.9535 35.5556 41.4222 35.5556H44.2963C45.6054 35.5556 46.6667 36.6168 46.6667 37.9259V40.7587C46.6667 41.2918 46.8897 41.8005 47.2817 42.1618C47.634 42.4864 48.0956 42.6667 48.5746 42.6667H51.4074C52.7165 42.6667 53.7778 43.7279 53.7778 45.037V49.7778V54.5185C53.7778 55.8276 54.839 56.8889 56.1481 56.8889H58.5185C59.8276 56.8889 60.8889 57.9501 60.8889 59.2593V61.6296C60.8889 62.9388 59.8276 64 58.5185 64H53.7778H46.6667H39.5556H32.4444H25.3333H18.2222H11.1111H6.37037C5.06125 64 4 62.9388 4 61.6296V59.2593C4 57.9501 5.06125 56.8889 6.37037 56.8889H8.74074C10.0499 56.8889 11.1111 55.8276 11.1111 54.5185V49.7778V45.037C11.1111 43.7279 12.1724 42.6667 13.4815 42.6667H16.1032C16.6802 42.6667 17.2322 42.4314 17.6318 42.0151C18.0107 41.6205 18.2222 41.0947 18.2222 40.5476V37.9259C18.2222 36.6168 19.2835 35.5556 20.5926 35.5556H23.235C23.8063 35.5556 24.353 35.3226 24.7487 34.9104C25.1238 34.5196 25.3333 33.9989 25.3333 33.4572V30.7519C25.3333 30.1073 25.0636 29.492 24.5896 29.0551C24.1635 28.6624 23.6053 28.4444 23.0258 28.4444H20.5926C19.2835 28.4444 18.2222 27.3832 18.2222 26.0741V23.4029C18.2222 22.8247 17.9803 22.2728 17.5551 21.881C17.173 21.5288 16.6723 21.3333 16.1527 21.3333H13.4815C12.1724 21.3333 11.1111 20.2721 11.1111 18.963V14.2222V9.48148C11.1111 8.17236 10.0499 7.11111 8.74074 7.11111H6.37037C5.06125 7.11111 4 6.04986 4 4.74074V2.37037C4 1.06125 5.06125 0 6.37037 0H11.1111ZM39.5556 26.3711C39.5556 26.9504 39.3132 27.5032 38.8873 27.8958C38.5044 28.2486 38.0029 28.4444 37.4822 28.4444H32.4444H27.2413C26.7622 28.4444 26.3006 28.2642 25.9483 27.9395C25.5563 27.5783 25.3333 27.0695 25.3333 26.5365V23.7037C25.3333 22.3946 24.2721 21.3333 22.963 21.3333H20.3681C19.8293 21.3333 19.3102 21.1306 18.9139 20.7655C18.473 20.3592 18.2222 19.787 18.2222 19.1875V14.2222V9.48148C18.2222 8.17236 19.2835 7.11111 20.5926 7.11111H25.3333H32.4444H39.5556H44.5634C45.1361 7.11111 45.6841 7.34465 46.0807 7.75779C46.4567 8.14948 46.6667 8.6714 46.6667 9.21436V14.2222V18.8335C46.6667 19.4958 46.3896 20.1278 45.9026 20.5766L45.7622 20.7061C45.3245 21.1094 44.751 21.3333 44.1558 21.3333H41.9259C40.6168 21.3333 39.5556 22.3946 39.5556 23.7037V26.3711ZM37.2068 35.5556C37.7965 35.5556 38.3648 35.7774 38.7985 36.1771C39.281 36.6218 39.5556 37.2481 39.5556 37.9044V40.2963C39.5556 41.6054 40.6168 42.6667 41.9259 42.6667H44.3592C44.9386 42.6667 45.4968 42.8847 45.9229 43.2773C46.397 43.7142 46.6667 44.3295 46.6667 44.9741V49.7778V54.9764C46.6667 55.4701 46.4757 55.9447 46.1338 56.3009C45.7732 56.6765 45.2749 56.8889 44.7542 56.8889H39.5556H32.4444H25.3333H20.5926C19.2835 56.8889 18.2222 55.8276 18.2222 54.5185V49.7778V44.7541C18.2222 44.2152 18.4306 43.6972 18.8038 43.3085C19.1974 42.8984 19.7412 42.6667 20.3096 42.6667H22.963C24.2721 42.6667 25.3333 41.6054 25.3333 40.2963V37.6636C25.3333 37.1194 25.5438 36.5963 25.9207 36.2037C26.3182 35.7896 26.8674 35.5556 27.4414 35.5556H32.4444H37.2068Z" fill="#FF004D"/>
</svg>
