<svg width="64" height="64" viewBox="0 0 64 64" fill="none" xmlns="http://www.w3.org/2000/svg">
<path d="M6 17C6 13.9412 14.423 5.99997 17.5 5.99997H41.5C44.577 5.99997 58 4.99997 58 22V47.5C58 50.5588 50.577 58 47.5 58H16.5C13.423 58 6 50.5588 6 47.5V17Z" fill="#FFC5D3"/>
<path fill-rule="evenodd" clip-rule="evenodd" d="M21.3333 0H16.5926C15.2835 0 14.2222 1.06125 14.2222 2.37037V5.5036C14.2222 5.91858 14.0617 6.31749 13.7744 6.61685C13.4712 6.93262 13.0524 7.11111 12.6147 7.11111H9.48148C8.17236 7.11111 7.11111 8.17236 7.11111 9.48148V12.3097C7.11111 12.8034 6.92018 13.278 6.57826 13.6342C6.21762 14.0099 5.71937 14.2222 5.19861 14.2222H2.37037C1.06125 14.2222 0 15.2835 0 16.5926V21.3333V28.4444V35.5556V42.6667V47.4074C0 48.7165 1.06125 49.7778 2.37037 49.7778H5.00789C5.58059 49.7778 6.12852 50.0113 6.52513 50.4245C6.90114 50.8161 7.11111 51.338 7.11111 51.881V54.5185C7.11111 55.8276 8.17236 56.8889 9.48148 56.8889H12.119C12.6917 56.8889 13.2396 57.1224 13.6362 57.5356C14.0123 57.9272 14.2222 58.4492 14.2222 58.9921V61.6296C14.2222 62.9388 15.2835 64 16.5926 64H21.3333H28.4444H35.5556H42.6667H47.4074C48.7165 64 49.7778 62.9388 49.7778 61.6296V59.1828C49.7778 58.5907 50.0068 58.0214 50.4169 57.5942C50.8495 57.1436 51.4471 56.8889 52.0717 56.8889H54.5185C55.8276 56.8889 56.8889 55.8276 56.8889 54.5185V52.0717C56.8889 51.4795 57.1179 50.9103 57.528 50.4831C57.9606 50.0325 58.5582 49.7778 59.1828 49.7778H61.6296C62.9388 49.7778 64 48.7165 64 47.4074V42.6667V35.5556V28.4444V21.3333V16.5926C64 15.2835 62.9388 14.2222 61.6296 14.2222H58.9921C58.4194 14.2222 57.8715 13.9887 57.4749 13.5755C57.0989 13.1839 56.8889 12.662 56.8889 12.119V9.48148C56.8889 8.17236 55.8276 7.11111 54.5185 7.11111H51.881C51.3083 7.11111 50.7604 6.87757 50.3638 6.46444C49.9878 6.07276 49.7778 5.55085 49.7778 5.0079V2.37037C49.7778 1.06125 48.7165 0 47.4074 0H42.6667H35.5556H28.4444H21.3333ZM49.1918 7.75779C48.7952 7.34465 48.2472 7.11111 47.6745 7.11111H42.6667H35.5556H28.4444H21.3333H16.7237C16.0783 7.11111 15.4608 7.37431 15.0138 7.83992L14.8826 7.97654C14.4589 8.41797 14.2222 9.00618 14.2222 9.6181V11.8519C14.2222 13.161 13.161 14.2222 11.8519 14.2222H9.40507C8.78043 14.2222 8.18281 14.4769 7.75024 14.9275C7.34013 15.3547 7.11111 15.924 7.11111 16.5162V21.3333V28.4444V35.5556V42.6667V47.6745C7.11111 48.2175 7.32109 48.7394 7.6971 49.1311C8.09372 49.5442 8.64165 49.7778 9.21436 49.7778H11.8519C13.161 49.7778 14.2222 50.839 14.2222 52.1481V54.7856C14.2222 55.3286 14.4322 55.8505 14.8082 56.2422C15.2048 56.6553 15.7528 56.8889 16.3255 56.8889H21.3333H28.4444H35.5556H42.6667H47.8653C48.386 56.8889 48.8843 56.6765 49.2449 56.3009C49.5868 55.9447 49.7778 55.4701 49.7778 54.9764V52.1481C49.7778 50.839 50.839 49.7778 52.1481 49.7778H54.9764C55.4971 49.7778 55.9954 49.5654 56.356 49.1897C56.698 48.8336 56.8889 48.359 56.8889 47.8653V42.6667V35.5556V28.4444V21.3333V16.3255C56.8889 15.7825 56.6789 15.2606 56.3029 14.8689C55.9063 14.4558 55.3583 14.2222 54.7856 14.2222H52.1481C50.839 14.2222 49.7778 13.161 49.7778 11.8519V9.21436C49.7778 8.6714 49.5678 8.14948 49.1918 7.75779ZM42.6667 33.1852C42.6667 34.4943 41.6054 35.5556 40.2963 35.5556H37.9259C36.6168 35.5556 35.5556 36.6168 35.5556 37.9259V42.6667V47.4074C35.5556 48.7165 34.4943 49.7778 33.1852 49.7778H30.8148C29.5057 49.7778 28.4444 48.7165 28.4444 47.4074V42.6667V37.9259C28.4444 36.6168 27.3832 35.5556 26.0741 35.5556H23.7037C22.3946 35.5556 21.3333 34.4943 21.3333 33.1852V30.8148C21.3333 29.5057 22.3946 28.4444 23.7037 28.4444H28.4444H35.5556H40.2963C41.6054 28.4444 42.6667 29.5057 42.6667 30.8148V33.1852ZM35.5556 21.3333H28.4444H23.7037C22.3946 21.3333 21.3333 20.2721 21.3333 18.963V16.5926C21.3333 15.2835 22.3946 14.2222 23.7037 14.2222H28.4444H35.5556H40.2963C41.6054 14.2222 42.6667 15.2835 42.6667 16.5926V18.963C42.6667 20.2721 41.6054 21.3333 40.2963 21.3333H35.5556Z" fill="#FF004D"/>
</svg>
