<svg width="64" height="64" viewBox="0 0 64 64" fill="none" xmlns="http://www.w3.org/2000/svg">
<path fill-rule="evenodd" clip-rule="evenodd" d="M56 2.66667C56 1.19391 54.8061 0 53.3333 0H48H42.6667C41.1939 0 40 1.19391 40 2.66667V5.62096C40 6.28563 39.7219 6.92 39.2332 7.37043C38.7939 7.77526 38.2183 8 37.621 8H34.6667C33.1939 8 32 9.19391 32 10.6667V16V21.3333C32 22.8061 33.1939 24 34.6667 24H37.9824C38.5318 24 39.0574 24.224 39.4379 24.6203C39.7986 24.9961 40 25.4967 40 26.0176V29.3333C40 30.8061 41.1939 32 42.6667 32H48H53.3333C54.8061 32 56 30.8061 56 29.3333V25.863C56 25.3425 56.2177 24.8457 56.6005 24.493C56.9445 24.176 57.3952 24 57.863 24H61.3333C62.8061 24 64 22.8061 64 21.3333V16V10.6667C64 9.19391 62.8061 8 61.3333 8H58.157C57.5697 8 57.0077 7.76049 56.601 7.33679C56.2153 6.93509 56 6.39983 56 5.84299V2.66667ZM40 21.3046C40 21.993 40.2662 22.6548 40.743 23.1514L40.7705 23.1801C41.2734 23.7039 41.9681 24 42.6942 24H48H53.2037C53.8733 24 54.5184 23.7481 55.0108 23.2943L55.1404 23.1748C55.6883 22.67 56 21.9589 56 21.2139V16V10.5753C56 9.91045 55.7429 9.2714 55.2825 8.79181C54.7969 8.28595 54.126 8 53.4247 8H48H42.3633C41.7699 8 41.1982 8.22326 40.7618 8.62542C40.2762 9.07287 40 9.70306 40 10.3633V16V21.3046ZM24 34.6667C24 33.1939 22.8061 32 21.3333 32H16H10.6667C9.19391 32 8 33.1939 8 34.6667V37.621C8 38.2856 7.72194 38.92 7.23316 39.3704C6.79386 39.7753 6.21834 40 5.62096 40H2.66667C1.19391 40 0 41.1939 0 42.6667V48V53.3333C0 54.8061 1.19391 56 2.66666 56H5.98244C6.53181 56 7.05742 56.224 7.43788 56.6203C7.79858 56.9961 8 57.4967 8 58.0176V61.3333C8 62.8061 9.19391 64 10.6667 64H16H21.3333C22.8061 64 24 62.8061 24 61.3333V57.863C24 57.3425 24.2177 56.8457 24.6005 56.493C24.9445 56.176 25.3952 56 25.863 56H29.3333C30.8061 56 32 54.8061 32 53.3333V48V42.6667C32 41.1939 30.8061 40 29.3333 40H26.157C25.5697 40 25.0077 39.7605 24.601 39.3368C24.2153 38.9351 24 38.3998 24 37.843V34.6667ZM8.77053 55.1801C9.27339 55.7039 9.96811 56 10.6942 56H16H21.2037C21.8733 56 22.5184 55.7481 23.0108 55.2943L23.1404 55.1748C23.6883 54.67 24 53.9589 24 53.2139V48V42.5753C24 41.9105 23.7429 41.2714 23.2825 40.7918C22.7969 40.286 22.126 40 21.4247 40H16H10.3633C9.7699 40 9.19818 40.2233 8.76178 40.6254C8.27623 41.0729 8 41.7031 8 42.3633V48V53.3046C8 53.993 8.26622 54.6548 8.74297 55.1514L8.77053 55.1801ZM48 53.3333C48 54.8061 49.1939 56 50.6667 56H53.3333C54.8061 56 56 54.8061 56 53.3333V50.6667C56 49.1939 54.8061 48 53.3333 48H49.6142C49.2089 48 48.8184 47.8475 48.5203 47.5728C48.1887 47.2672 48 46.8368 48 46.3858V42.6667C48 41.1939 46.8061 40 45.3333 40H42.2398C41.6773 40 41.1355 39.7884 40.7219 39.4073C40.2618 38.9832 40 38.386 40 37.7602V34.6667C40 33.1939 38.8061 32 37.3333 32H34.1932C33.6424 32 33.1119 31.7928 32.7069 31.4196C32.2563 31.0044 32 30.4196 32 29.8068V26.6667C32 25.1939 30.8061 24 29.3333 24H26.1C25.5727 24 25.0647 23.8016 24.6769 23.4443C24.2454 23.0467 24 22.4867 24 21.9V18.6667C24 17.1939 22.8061 16 21.3333 16H18.1C17.5727 16 17.0647 15.8016 16.6769 15.4443C16.2455 15.0467 16 14.4867 16 13.9V10.6667C16 9.19391 14.8061 8 13.3333 8H10.6667C9.19391 8 8 9.19391 8 10.6667V13.3333C8 14.8061 9.19391 16 10.6667 16H13.3577C14.0212 16 14.6604 16.2496 15.1483 16.6993C15.6912 17.1995 16 17.9041 16 18.6423V21.3333C16 22.8061 17.1939 24 18.6667 24H21.3576C22.0211 24 22.6604 24.2496 23.1483 24.6993C23.6912 25.1995 24 25.9041 24 26.6424V29.3333C24 30.8061 25.1939 32 26.6667 32H29.4508C30.0909 32 30.7076 32.2408 31.1783 32.6746C31.702 33.1573 32 33.837 32 34.5492V37.3333C32 38.8061 33.1939 40 34.6667 40H37.4974C38.1258 40 38.7312 40.2364 39.1933 40.6623C39.7075 41.1361 40 41.8034 40 42.5026V45.3333C40 46.8061 41.1939 48 42.6667 48H45.052C45.7216 48 46.3667 48.2519 46.8592 48.7057L47.1405 48.9649C47.6883 49.4698 48 50.1809 48 50.9259V53.3333Z" fill="#FF004D"/>
</svg>
