<svg width="64" height="64" viewBox="0 0 64 64" fill="none" xmlns="http://www.w3.org/2000/svg">
<circle cx="32" cy="32" r="32" fill="#F8F9FB"/>
<path d="M32.0001 32C34.0369 32 35.9904 31.1909 37.4306 29.7506C38.8709 28.3103 39.6801 26.3569 39.6801 24.32C39.6801 22.2832 38.8709 20.3297 37.4306 18.8894C35.9904 17.4492 34.0369 16.64 32.0001 16.64C29.9632 16.64 28.0098 17.4492 26.5695 18.8894C25.1292 20.3297 24.3201 22.2832 24.3201 24.32C24.3201 26.3569 25.1292 28.3103 26.5695 29.7506C28.0098 31.1909 29.9632 32 32.0001 32ZM29.2581 34.88C23.3481 34.88 18.5601 39.668 18.5601 45.578C18.5601 46.562 19.3581 47.36 20.3421 47.36H43.6581C44.6421 47.36 45.4401 46.562 45.4401 45.578C45.4401 39.668 40.6521 34.88 34.7421 34.88H29.2581Z" fill="#BCC1D0"/>
</svg>
