<svg width="24" height="25" viewBox="0 0 24 25" fill="none" xmlns="http://www.w3.org/2000/svg">
<path d="M4.92656 10.0969C5.2875 9.07502 5.87344 8.11408 6.69844 7.29377C9.62812 4.36408 14.3766 4.36408 17.3063 7.29377L18.1078 8.10002H16.5C15.6703 8.10002 15 8.77033 15 9.60002C15 10.4297 15.6703 11.1 16.5 11.1H21.7266H21.7453C22.575 11.1 23.2453 10.4297 23.2453 9.60002V4.35002C23.2453 3.52033 22.575 2.85002 21.7453 2.85002C20.9156 2.85002 20.2453 3.52033 20.2453 4.35002V6.00002L19.425 5.17502C15.3234 1.07346 8.67656 1.07346 4.575 5.17502C3.43125 6.31877 2.60625 7.66408 2.1 9.10314C1.82344 9.88596 2.23594 10.7391 3.01406 11.0156C3.79219 11.2922 4.65 10.8797 4.92656 10.1016V10.0969ZM1.82812 14.161C1.59375 14.2313 1.36875 14.3578 1.18594 14.5453C0.998437 14.7328 0.871875 14.9578 0.80625 15.2016C0.792188 15.2578 0.778125 15.3188 0.76875 15.3797C0.754687 15.4594 0.75 15.5391 0.75 15.6188V20.85C0.75 21.6797 1.42031 22.35 2.25 22.35C3.07969 22.35 3.75 21.6797 3.75 20.85V19.2047L4.575 20.025C8.67656 24.1219 15.3234 24.1219 19.4203 20.025C20.5641 18.8813 21.3938 17.536 21.9 16.1016C22.1766 15.3188 21.7641 14.4656 20.9859 14.1891C20.2078 13.9125 19.35 14.325 19.0734 15.1031C18.7125 16.125 18.1266 17.086 17.3016 17.9063C14.3719 20.836 9.62344 20.836 6.69375 17.9063L6.68906 17.9016L5.8875 17.1H7.5C8.32969 17.1 9 16.4297 9 15.6C9 14.7703 8.32969 14.1 7.5 14.1H2.26875C2.19375 14.1 2.11875 14.1047 2.04375 14.1141C1.96875 14.1235 1.89844 14.1375 1.82812 14.161Z" fill="white"/>
</svg>
