<svg width="24" height="25" viewBox="0 0 24 25" fill="none" xmlns="http://www.w3.org/2000/svg">
<g clip-path="url(#clip0_29_633)">
<path d="M13.0594 1.03946C12.4734 0.453522 11.5219 0.453522 10.9359 1.03946L4.93594 7.03946C4.35 7.6254 4.35 8.57696 4.93594 9.1629C5.52188 9.74883 6.47344 9.74883 7.05937 9.1629L10.5 5.72227V15.5988C10.5 16.4285 11.1703 17.0988 12 17.0988C12.8297 17.0988 13.5 16.4285 13.5 15.5988V5.72227L16.9406 9.1629C17.5266 9.74883 18.4781 9.74883 19.0641 9.1629C19.65 8.57696 19.65 7.6254 19.0641 7.03946L13.0641 1.03946H13.0594ZM4.5 17.0988C4.5 16.2691 3.82969 15.5988 3 15.5988C2.17031 15.5988 1.5 16.2691 1.5 17.0988V20.0988C1.5 22.5832 3.51562 24.5988 6 24.5988H18C20.4844 24.5988 22.5 22.5832 22.5 20.0988V17.0988C22.5 16.2691 21.8297 15.5988 21 15.5988C20.1703 15.5988 19.5 16.2691 19.5 17.0988V20.0988C19.5 20.9285 18.8297 21.5988 18 21.5988H6C5.17031 21.5988 4.5 20.9285 4.5 20.0988V17.0988Z" fill="white"/>
</g>
<defs>
<clipPath id="clip0_29_633">
<rect width="24" height="24" fill="white" transform="translate(0 0.600006)"/>
</clipPath>
</defs>
</svg>
