<svg width="24" height="25" viewBox="0 0 24 25" fill="none" xmlns="http://www.w3.org/2000/svg">
<path d="M1.5 5.10001C1.5 4.27032 2.17031 3.60001 3 3.60001H21C21.8297 3.60001 22.5 4.27032 22.5 5.10001C22.5 5.92969 21.8297 6.60001 21 6.60001H3C2.17031 6.60001 1.5 5.92969 1.5 5.10001ZM1.5 12.6C1.5 11.7703 2.17031 11.1 3 11.1H21C21.8297 11.1 22.5 11.7703 22.5 12.6C22.5 13.4297 21.8297 14.1 21 14.1H3C2.17031 14.1 1.5 13.4297 1.5 12.6ZM22.5 20.1C22.5 20.9297 21.8297 21.6 21 21.6H3C2.17031 21.6 1.5 20.9297 1.5 20.1C1.5 19.2703 2.17031 18.6 3 18.6H21C21.8297 18.6 22.5 19.2703 22.5 20.1Z" fill="white"/>
</svg>
