<svg width="24" height="25" viewBox="0 0 24 25" fill="none" xmlns="http://www.w3.org/2000/svg">
<g clip-path="url(#clip0_29_634)">
<path d="M3 2.85001C3 1.60782 4.00781 0.600006 5.25 0.600006V2.85001V21.2906L11.3484 16.9359C11.7375 16.6547 12.2672 16.6547 12.6562 16.9359L18.75 21.2906V2.85001H5.25V0.600006H18.75C19.9922 0.600006 21 1.60782 21 2.85001V23.475C21 23.8969 20.7656 24.2813 20.3906 24.4734C20.0156 24.6656 19.5656 24.6328 19.2234 24.3891L12 19.2328L4.77656 24.3891C4.43438 24.6328 3.98438 24.6656 3.60938 24.4734C3.23438 24.2813 3 23.8969 3 23.475V2.85001Z" fill="white"/>
</g>
<defs>
<clipPath id="clip0_29_634">
<rect width="24" height="24" fill="white" transform="translate(0 0.600006)"/>
</clipPath>
</defs>
</svg>
