<svg width="24" height="25" viewBox="0 0 24 25" fill="none" xmlns="http://www.w3.org/2000/svg">
<g clip-path="url(#clip0_29_635)">
<path d="M21.75 12.6C21.75 15.1859 20.7228 17.6658 18.8943 19.4943C17.0658 21.3228 14.5859 22.35 12 22.35C9.41414 22.35 6.93419 21.3228 5.10571 19.4943C3.27723 17.6658 2.25 15.1859 2.25 12.6C2.25 10.0141 3.27723 7.53419 5.10571 5.70572C6.93419 3.87724 9.41414 2.85001 12 2.85001C14.5859 2.85001 17.0658 3.87724 18.8943 5.70572C20.7228 7.53419 21.75 10.0141 21.75 12.6ZM0 12.6C0 15.7826 1.26428 18.8349 3.51472 21.0853C5.76516 23.3357 8.8174 24.6 12 24.6C15.1826 24.6 18.2348 23.3357 20.4853 21.0853C22.7357 18.8349 24 15.7826 24 12.6C24 9.41741 22.7357 6.36516 20.4853 4.11472C18.2348 1.86429 15.1826 0.600006 12 0.600006C8.8174 0.600006 5.76516 1.86429 3.51472 4.11472C1.26428 6.36516 0 9.41741 0 12.6ZM10.875 6.22501V12.6C10.875 12.975 11.0625 13.3266 11.3766 13.5375L15.8766 16.5375C16.3922 16.8844 17.0906 16.7438 17.4375 16.2234C17.7844 15.7031 17.6437 15.0094 17.1234 14.6625L13.125 12V6.22501C13.125 5.60157 12.6234 5.10001 12 5.10001C11.3766 5.10001 10.875 5.60157 10.875 6.22501Z" fill="white"/>
</g>
<defs>
<clipPath id="clip0_29_635">
<rect width="24" height="24" fill="white" transform="translate(0 0.600006)"/>
</clipPath>
</defs>
</svg>
