<svg width="24" height="25" viewBox="0 0 24 25" fill="none" xmlns="http://www.w3.org/2000/svg">
<g clip-path="url(#clip0_202_2859)">
<rect width="2.2" height="8" rx="1" transform="matrix(-1 0 0 1 13.1 0.600006)" fill="#BCC1D0"/>
<rect opacity="0.88" width="2.2" height="8" rx="1" transform="matrix(-0.707107 0.707107 0.707107 0.707107 4.29248 3.33691)" fill="#BCC1D0"/>
<rect opacity="0.76" width="2.2" height="8" rx="1" transform="matrix(4.37114e-08 1 1 -4.37114e-08 0 11.5)" fill="#BCC1D0"/>
<rect opacity="0.64" width="2.2" height="8" rx="1" transform="matrix(0.707107 0.707107 0.707107 -0.707107 2.73694 20.3075)" fill="#BCC1D0"/>
<rect opacity="0.52" width="2.2" height="8" rx="1" transform="matrix(-1 0 0 1 13.1 16.6)" fill="#BCC1D0"/>
<rect opacity="0.4" width="2.2" height="8" rx="1" transform="matrix(-0.707107 0.707107 0.707107 0.707107 15.6062 14.6506)" fill="#BCC1D0"/>
<rect opacity="0.28" width="2.2" height="8" rx="1" transform="matrix(4.37114e-08 1 1 -4.37114e-08 16 11.5)" fill="#BCC1D0"/>
<rect opacity="0.16" width="2.2" height="8" rx="1" transform="matrix(0.707107 0.707107 0.707107 -0.707107 14.0507 8.99374)" fill="#BCC1D0"/>
</g>
<defs>
<clipPath id="clip0_202_2859">
<rect width="24" height="24" fill="white" transform="translate(0 0.600006)"/>
</clipPath>
</defs>
</svg>
