<svg width="24" height="25" viewBox="0 0 24 25" fill="none" xmlns="http://www.w3.org/2000/svg">
<g clip-path="url(#clip0_157_2506)">
<path d="M19.5 16.35H10.5C10.0875 16.35 9.75 16.0125 9.75 15.6V3.60001C9.75 3.18751 10.0875 2.85001 10.5 2.85001H17.0672L20.25 6.03282V15.6C20.25 16.0125 19.9125 16.35 19.5 16.35ZM10.5 18.6H19.5C21.1547 18.6 22.5 17.2547 22.5 15.6V6.03282C22.5 5.43751 22.2609 4.86563 21.8391 4.44376L18.6609 1.26094C18.2391 0.839069 17.6672 0.600006 17.0719 0.600006H10.5C8.84531 0.600006 7.5 1.94532 7.5 3.60001V15.6C7.5 17.2547 8.84531 18.6 10.5 18.6ZM4.5 6.60001C2.84531 6.60001 1.5 7.94532 1.5 9.60001V21.6C1.5 23.2547 2.84531 24.6 4.5 24.6H13.5C15.1547 24.6 16.5 23.2547 16.5 21.6V20.1H14.25V21.6C14.25 22.0125 13.9125 22.35 13.5 22.35H4.5C4.0875 22.35 3.75 22.0125 3.75 21.6V9.60001C3.75 9.18751 4.0875 8.85001 4.5 8.85001H6V6.60001H4.5Z" fill="white"/>
</g>
<defs>
<clipPath id="clip0_157_2506">
<rect width="24" height="24" fill="white" transform="translate(0 0.600006)"/>
</clipPath>
</defs>
</svg>
