<svg width="24" height="25" viewBox="0 0 24 25" fill="none" xmlns="http://www.w3.org/2000/svg">
<path fill-rule="evenodd" clip-rule="evenodd" d="M7 6.60001V14.6C7 16.2569 8.34315 17.6 10 17.6H18C19.6569 17.6 21 16.2569 21 14.6V6.60001C21 4.94315 19.6569 3.60001 18 3.60001H10C8.34315 3.60001 7 4.94315 7 6.60001Z" stroke="#F8F9FB" stroke-width="1.5" stroke-linecap="round" stroke-linejoin="round"/>
<path d="M17 17.6V18.6C17 20.2569 15.6569 21.6 14 21.6H6C4.34315 21.6 3 20.2569 3 18.6V10.6C3 8.94315 4.34315 7.60001 6 7.60001H7" stroke="#F8F9FB" stroke-width="1.5" stroke-linecap="round" stroke-linejoin="round"/>
<path d="M14.0009 12.6V8.60001" stroke="#F8F9FB" stroke-width="1.5" stroke-linecap="round" stroke-linejoin="round"/>
<path d="M12 10.5992H16" stroke="#F8F9FB" stroke-width="1.5" stroke-linecap="round" stroke-linejoin="round"/>
</svg>
