<svg width="24" height="25" viewBox="0 0 24 25" fill="none" xmlns="http://www.w3.org/2000/svg">
<path d="M4.46735 12.6C4.46735 11.9768 4.97117 11.473 5.59099 11.4763L10.7067 11.4763L10.7067 6.36065C10.7067 5.73751 11.2105 5.2337 11.8303 5.23701C12.4501 5.24033 12.9573 5.74083 12.954 6.36065L12.954 11.4763H18.0696C18.6928 11.4763 19.1966 11.9802 19.1933 12.6C19.19 13.2198 18.6895 13.7269 18.0696 13.7236H12.954L12.954 18.8393C12.954 19.4624 12.4501 19.9663 11.8303 19.9629C11.2105 19.9596 10.7034 19.4591 10.7067 18.8393L10.7067 13.7236L5.59099 13.7236C4.96785 13.7236 4.46404 13.2198 4.46735 12.6Z" fill="white"/>
</svg>
