<svg width="24" height="25" viewBox="0 0 24 25" fill="none" xmlns="http://www.w3.org/2000/svg">
<path d="M12 17.475C11.3038 17.475 10.6361 17.7516 10.1438 18.2439C9.65156 18.7361 9.375 19.4038 9.375 20.1C9.375 20.7962 9.65156 21.4639 10.1438 21.9562C10.6361 22.4484 11.3038 22.725 12 22.725C12.6962 22.725 13.3639 22.4484 13.8562 21.9562C14.3484 21.4639 14.625 20.7962 14.625 20.1C14.625 19.4038 14.3484 18.7361 13.8562 18.2439C13.3639 17.7516 12.6962 17.475 12 17.475ZM12 9.97501C11.3038 9.97501 10.6361 10.2516 10.1438 10.7439C9.65156 11.2361 9.375 11.9038 9.375 12.6C9.375 13.2962 9.65156 13.9639 10.1438 14.4562C10.6361 14.9484 11.3038 15.225 12 15.225C12.6962 15.225 13.3639 14.9484 13.8562 14.4562C14.3484 13.9639 14.625 13.2962 14.625 12.6C14.625 11.9038 14.3484 11.2361 13.8562 10.7439C13.3639 10.2516 12.6962 9.97501 12 9.97501ZM14.625 5.10001C14.625 4.40381 14.3484 3.73613 13.8562 3.24385C13.3639 2.75157 12.6962 2.47501 12 2.47501C11.3038 2.47501 10.6361 2.75157 10.1438 3.24385C9.65156 3.73613 9.375 4.40381 9.375 5.10001C9.375 5.7962 9.65156 6.46388 10.1438 6.95616C10.6361 7.44844 11.3038 7.72501 12 7.72501C12.6962 7.72501 13.3639 7.44844 13.8562 6.95616C14.3484 6.46388 14.625 5.7962 14.625 5.10001Z" fill="white"/>
</svg>
